# xmcd
#
# Track frame offsets:
#	150
#	15617
#	29342
#	43397
#	57477
#	71270
#	82387
#	95997
#	109067
#	122397
#	135842
#	149565
#	162965
#	176805
#	190985
#	204845
#	218367
#	233785
#
# Disc length: 3281
#
# Revision: 2
# Processed by: cddbd v1.5.1PL0 Copyright (c) Steve Scherf et al.
# Submitted via: audiograbber 1.83.01
# Normalized: r1:DSETVAR1,TDELIM( - ),TSWAP
#
DISCID=030ccf12
DTITLE=Various Artist - HOOCHIE COOCHIE MEN
DYEAR=1900
DGENRE=
TTITLE0=MUDDY WATERS - HOOCHIE COOCHIE MAN
TTITLE1=ROBERT JOHNSON - TERRAPLANE BLUES
TTITLE2=BO CARTER - PIN IN YOUR CUSHION
TTITLE3=WASHBOARD SAM - DIGGING MY POTATOES
TTITLE4=TAMPA RED - ITS TIGHT LIKE THAT
TTITLE5=ROBERT JOHNSON - LOVE IN VAIN
TTITLE6=BO CARTER - RAM RAD DADDY
TTITLE7=SLEEPY JOHN ESTES - SPECIAL AGENT
TTITLE8=BLIND BOY FULLER - IM A STRANGER HERE
TTITLE9=BLIND LEMON JEFFERSON - HOT DOGS
TTITLE10=LONNIE JOHNSON - PLAYING WITH THE STRINGS
TTITLE11=LEADBELLY - ROCK ISLAND LINE
TTITLE12=LEROY CARR - CARRIED WATER FOR THE ELEFANT
TTITLE13=BLIND WILLIE MCTELL - BROKE DOWN THE ENGINE BLUES
TTITLE14=BLIND LEMON JEFFERSON - CORRINA BLUES
TTITLE15=BARBEQUE BOB - YO YO BLUES
TTITLE16=MUDDY WATERS - GOT MY MOJO WORKING
TTITLE17=LONNIE JOHNSON - MR JOHNSONS SWING
EXTD=
EXTT0=
EXTT1=
EXTT2=
EXTT3=
EXTT4=
EXTT5=
EXTT6=
EXTT7=
EXTT8=
EXTT9=
EXTT10=
EXTT11=
EXTT12=
EXTT13=
EXTT14=
EXTT15=
EXTT16=
EXTT17=
PLAYORDER=
